<?xml version="1.0" encoding="utf-8"?>
<!-- Generator: Adobe Illustrator 19.2.0, SVG Export Plug-In . SVG Version: 6.00 Build 0)  -->
<svg version="1.1" id="Layer_1" xmlns="http://www.w3.org/2000/svg" xmlns:xlink="http://www.w3.org/1999/xlink" x="0px" y="0px"
	 viewBox="0 0 196 186" style="enable-background:new 0 0 196 186;" xml:space="preserve">
<style type="text/css">
	.st0{fill:url(#_Clipping_Path_2_1_);}
	.st1{clip-path:url(#SVGID_2_);}
	.st2{fill:url(#SVGID_3_);}
	.st3{fill:#FBFAF5;}
	.st4{fill:#7E4E24;}
	.st5{fill:url(#SVGID_4_);}
	.st6{fill:url(#SVGID_5_);}
	.st7{fill:none;stroke:#7E4E24;stroke-width:1.3;stroke-linecap:round;stroke-miterlimit:10;}
</style>
<title>avatar-sad</title>
<image style="overflow:visible;enable-background:new    ;" width="314" height="84" xlink:href="B8C8DA74F27E7F12.png"  transform="matrix(1 0 0 1 -59 136.02)">
</image>
<linearGradient id="_Clipping_Path_2_1_" gradientUnits="userSpaceOnUse" x1="-1.8914" y1="84.0209" x2="74.9768" y2="217.1678" gradientTransform="matrix(1 0 0 -1 59.14 237.23)">
	<stop  offset="0" style="stop-color:#F89F2F"/>
	<stop  offset="1" style="stop-color:#F2682E"/>
</linearGradient>
<path id="_Clipping_Path_2" class="st0" d="M40.7,134.9L22.3,78.1C18.3,65.9,22.6,52.5,33,45L81.3,9.9c10.4-7.6,24.5-7.6,34.9,0
	L164.4,45c10.4,7.6,14.8,20.9,10.8,33.2l-18.4,56.7c-4,12.2-15.4,20.5-28.2,20.5H68.9C56.1,155.4,44.7,147.1,40.7,134.9z"/>
<g>
	<defs>
		<path id="SVGID_1_" d="M40.7,134.9L22.3,78.1C18.3,65.9,22.6,52.5,33,45L81.3,9.9c10.4-7.6,24.5-7.6,34.9,0L164.4,45
			c10.4,7.6,14.8,20.9,10.8,33.2l-18.4,56.7c-4,12.2-15.4,20.5-28.2,20.5H68.9C56.1,155.4,44.7,147.1,40.7,134.9z"/>
	</defs>
	<clipPath id="SVGID_2_">
		<use xlink:href="#SVGID_1_"  style="overflow:visible;"/>
	</clipPath>
	<g class="st1">
		
			<linearGradient id="SVGID_3_" gradientUnits="userSpaceOnUse" x1="361.8007" y1="-6.9433" x2="461.3155" y2="165.4077" gradientTransform="matrix(0.8671 -0.4982 -0.4982 -0.8671 -253.9021 296.3298)">
			<stop  offset="0" style="stop-color:#FEC42D"/>
			<stop  offset="1" style="stop-color:#F47E2F"/>
		</linearGradient>
		<path class="st2" d="M13.6-64.2C60.3-91.1,120.5-73.9,148.1-26s12,108.6-34.7,135.4S6.4,119.1-21.1,71.2S-33.1-37.4,13.6-64.2z"/>
	</g>
</g>
<path class="st3" d="M52.5,135l-11-30.8c-3.5-9.8,1.6-20.5,11.4-24c2.8-1,5.8-1.3,8.7-0.9L96,83.7c1.6,0.2,3.2,0.2,4.8,0l34.4-4.4
	c10.3-1.3,19.7,6,20.9,16.3c0.4,2.9,0,5.8-0.9,8.6L144.2,135c-2.7,7.5-9.7,12.5-17.7,12.5H70.2C62.3,147.4,55.2,142.4,52.5,135z"/>
<path class="st4" d="M84.2,95.7h4.9c0.4,0,0.7,0.3,0.7,0.7v13.8c0,0.4-0.3,0.7-0.7,0.7h-4.9c-0.4,0-0.7-0.3-0.7-0.7V96.3
	C83.6,96,83.9,95.7,84.2,95.7z"/>
<path class="st4" d="M112.4,110.8h-4.9c-0.4,0-0.7-0.3-0.7-0.7V96.3c0-0.4,0.3-0.7,0.7-0.7h4.9c0.4,0,0.7,0.3,0.7,0.7v13.8
	C113,110.5,112.7,110.8,112.4,110.8z"/>
<linearGradient id="SVGID_4_" gradientUnits="userSpaceOnUse" x1="175.3603" y1="-6.33" x2="171.4103" y2="32.5" gradientTransform="matrix(1 0 0 -1 0 159.58)">
	<stop  offset="0" style="stop-color:#FEC42D"/>
	<stop  offset="1" style="stop-color:#F47E2F"/>
</linearGradient>
<circle class="st5" cx="172.8" cy="140.2" r="14.5"/>
<linearGradient id="SVGID_5_" gradientUnits="userSpaceOnUse" x1="-1385.7394" y1="71.3101" x2="-1389.6893" y2="110.1501" gradientTransform="matrix(-1 0 0 -1 -1364.51 237.23)">
	<stop  offset="0" style="stop-color:#FEC42D"/>
	<stop  offset="1" style="stop-color:#F47E2F"/>
</linearGradient>
<circle class="st6" cx="23.8" cy="140.2" r="14.5"/>
<line class="st7" x1="80.5" y1="135.7" x2="117" y2="126.5"/>
<path class="st7" d="M101.5,84.2c0-2.2,3.8-4,8.4-4s8.4,1.8,8.4,4"/>
</svg>
