<?xml version="1.0" encoding="utf-8"?>
<!-- Generator: Adobe Illustrator 19.2.0, SVG Export Plug-In . SVG Version: 6.00 Build 0)  -->
<svg version="1.1" id="Layer_1" xmlns="http://www.w3.org/2000/svg" xmlns:xlink="http://www.w3.org/1999/xlink" x="0px" y="0px"
	 viewBox="0 0 196 186" style="enable-background:new 0 0 196 186;" xml:space="preserve">
<style type="text/css">
	.st0{fill:url(#_Clipping_Path_2_1_);}
	.st1{clip-path:url(#SVGID_2_);}
	.st2{fill:url(#SVGID_3_);}
	.st3{fill:#FBFAF5;}
	.st4{fill:#7E4E24;}
	.st5{fill:url(#SVGID_4_);}
	.st6{fill:url(#SVGID_5_);}
</style>
<title>avatar</title>
<image style="overflow:visible;enable-background:new    ;" width="297" height="85" xlink:href="A6F6FE18ABE2F882.png"  transform="matrix(0.9966 0 0 0.9882 -50 130.64)">
</image>
<linearGradient id="_Clipping_Path_2_1_" gradientUnits="userSpaceOnUse" x1="28.1651" y1="65.1448" x2="102.0983" y2="193.1904" gradientTransform="matrix(1 0 0 -1 30.66 213.31)">
	<stop  offset="0" style="stop-color:#F89F2F"/>
	<stop  offset="1" style="stop-color:#F2682E"/>
</linearGradient>
<path id="_Clipping_Path_2" class="st0" d="M44.5,131L27.4,76c-3.7-11.8,0.3-24.6,10-32.2l44.7-34c9.5-7.3,22.8-7.3,32.3,0l44.7,34
	c9.7,7.6,13.7,20.4,10,32.2l-17.1,55c-3.7,11.9-14.2,19.9-26.1,19.9H70.7C58.7,150.9,48.1,142.9,44.5,131z"/>
<g>
	<defs>
		<path id="SVGID_1_" d="M44.5,131L27.4,76c-3.7-11.8,0.3-24.6,10-32.2l44.7-34c9.5-7.3,22.8-7.3,32.3,0l44.7,34
			c9.7,7.6,13.7,20.4,10,32.2l-17.1,55c-3.7,11.9-14.2,19.9-26.1,19.9H70.7C58.7,150.9,48.1,142.9,44.5,131z"/>
	</defs>
	<clipPath id="SVGID_2_">
		<use xlink:href="#SVGID_1_"  style="overflow:visible;"/>
	</clipPath>
	<g class="st1">
		
			<linearGradient id="SVGID_3_" gradientUnits="userSpaceOnUse" x1="385.9922" y1="-26.9969" x2="482.5041" y2="140.1617" gradientTransform="matrix(0.8671 -0.4982 -0.4982 -0.8671 -282.7353 287.494)">
			<stop  offset="0" style="stop-color:#FEC42D"/>
			<stop  offset="1" style="stop-color:#F47E2F"/>
		</linearGradient>
		<path class="st2" d="M144-25c25.5,46.5,11.1,105.3-32.2,131.3s-99.1,9.4-124.6-37.1S-23.9-36.1,19.4-62.1S118.5-71.5,144-25z"/>
	</g>
</g>
<path class="st3" d="M55.4,131.1l-10.2-29.9C41,88.4,51,75.3,63.9,77.1l31.8,4.3c1.5,0.2,3,0.2,4.4,0L132,77
	c12.9-1.7,22.9,11.3,18.6,24.1l-10.1,30c-2.3,7.1-8.9,12-16.4,12.1H71.8C64.3,143.1,57.7,138.2,55.4,131.1z"/>
<path class="st4" d="M84.9,93h4.5c0.4,0,0.7,0.3,0.7,0.7V107c0,0.4-0.3,0.7-0.7,0.7h-4.5c-0.4,0-0.7-0.3-0.7-0.7V93.7
	C84.2,93.3,84.5,93,84.9,93z"/>
<path class="st4" d="M110.8,107.7h-4.5c-0.4,0-0.7-0.3-0.7-0.7V93.6c0-0.4,0.3-0.7,0.7-0.7h4.5c0.4,0,0.7,0.3,0.7,0.7V107
	C111.5,107.4,111.2,107.7,110.8,107.7z"/>
<path class="st4" d="M115.2,118.1c0,10.2-7.9,18.4-17.6,18.4c-9.7,0-17.6-8.3-17.6-18.4"/>
<linearGradient id="SVGID_4_" gradientUnits="userSpaceOnUse" x1="176.7303" y1="-3.38" x2="172.9003" y2="34.28" gradientTransform="matrix(1 0 0 -1 0 138.58)">
	<stop  offset="0" style="stop-color:#FEC42D"/>
	<stop  offset="1" style="stop-color:#F47E2F"/>
</linearGradient>
<ellipse class="st5" cx="174.2" cy="117.1" rx="13.4" ry="14.1"/>
<linearGradient id="SVGID_5_" gradientUnits="userSpaceOnUse" x1="-1355.709" y1="71.3501" x2="-1359.5391" y2="109.0001" gradientTransform="matrix(-1 0 0 -1 -1336.71 213.31)">
	<stop  offset="0" style="stop-color:#FEC42D"/>
	<stop  offset="1" style="stop-color:#F47E2F"/>
</linearGradient>
<ellipse class="st6" cx="21.5" cy="117.1" rx="13.4" ry="14.1"/>
</svg>
